# xmcd CD database file
#
# Track frame offsets:
#	150
#	22545
#	44939
#
# Disc length: 872 seconds
#
# Revision: 0
# Processed by: cddbd v1.5PL3 Copyright (c) Steve Scherf et al.
# Submitted via: CDex 1.50beta10
#
DISCID=1c036603
DTITLE=一方通行 9→17 - Samurai-Road
DYEAR=2003
DGENRE=
TTITLE0=SAMURAI-ROAD
TTITLE1=神-Kamikaze-風
TTITLE2=心に残るうた
EXTD=YEAR: 2003
EXTT0=
EXTT1=
EXTT2=
PLAYORDER=
